# xmcd CD database file
#
# Track frame offsets:
#	150
#	28904
#	45203
#	65415
#	87635
#	103440
#	129099
#	141216
#	160324
#	185085
#
# Disc length: 2870 seconds
#
# Revision: 1
# Processed by: cddbd v1.4PL0 Copyright (c) Steve Scherf et al.
# Submitted via: CDex 1.50
#
DISCID=8d0b340a
DTITLE=Wolly Donovan - 10 Briefe
DYEAR=2003
DGENRE=Country
TTITLE0=Augen, die nie weinen
TTITLE1=Was sie gerade tut
TTITLE2=Ist die Wahrheit den so schwer
TTITLE3=Lass sie leben
TTITLE4=Freche Augen und Löwenmähnenhaar
TTITLE5=Schatten aus Glas
TTITLE6=Phantasie
TTITLE7=Tina
TTITLE8=Schon gut
TTITLE9=Ich würd so gerne
EXTD=YEAR: 2003
EXTT0=
EXTT1=
EXTT2=
EXTT3=
EXTT4=
EXTT5=
EXTT6=
EXTT7=
EXTT8=
EXTT9=
PLAYORDER=
